<svg xmlns="http://www.w3.org/2000/svg" xmlns:xlink="http://www.w3.org/1999/xlink" width="500" zoomAndPan="magnify" viewBox="0 0 375 374.999991" height="500" preserveAspectRatio="xMidYMid meet" version="1.0"><defs><clipPath id="74af491d46"><path d="M 25.585938 0 L 349.425781 0 L 349.425781 375 L 25.585938 375 Z M 25.585938 0 " clip-rule="nonzero"/></clipPath></defs><g clip-path="url(#74af491d46)"><path fill="#3b82f6" d="M 348.441406 123.386719 C 357.214844 83.429688 304.234375 65.550781 304.234375 65.550781 C 304.234375 65.550781 298.523438 10.195312 256.414062 7.664062 C 196.875 4.078125 191.863281 110.039062 189.289062 144.691406 C 190.949219 111.175781 198.710938 11.820312 149.304688 0.972656 C 109.355469 -7.804688 92.074219 45.953125 92.074219 45.953125 C 92.074219 45.953125 36.117188 50.890625 33.578125 92.996094 C 30 152.539062 133.320312 158.160156 167.96875 160.734375 C 134.457031 159.070312 37.414062 154.113281 26.566406 203.515625 C 17.789062 243.46875 70.773438 261.519531 70.773438 261.519531 C 70.773438 261.519531 68.679688 310.078125 110.792969 312.609375 C 129.25 313.722656 146.21875 305.042969 155.355469 289.523438 C 169.683594 265.171875 170.351562 242.890625 174.214844 222.273438 C 176.015625 212.6875 175.757812 210.847656 177.113281 203.914062 C 177.246094 202.480469 177.847656 201.402344 178.71875 200.632812 C 178.746094 273.300781 160.878906 319.320312 122.246094 361.75 C 121.980469 362.042969 122.007812 362.492188 122.308594 362.742188 C 127.113281 366.699219 131.90625 370.703125 136.679688 374.734375 C 137.160156 375.144531 137.882812 375.074219 138.285156 374.582031 C 174.574219 329.640625 189.300781 276.359375 188.820312 201.109375 C 189.929688 202.066406 190.652344 203.335938 190.644531 204.878906 C 190.25 229.222656 193.015625 254.359375 198.46875 280.171875 C 202.726562 296.742188 210.832031 311.195312 228.3125 315.03125 C 268.265625 323.808594 284.636719 277.710938 284.636719 277.710938 C 284.636719 277.710938 340.921875 272.765625 343.453125 230.65625 C 347.035156 171.117188 241.238281 164.402344 206.589844 161.824219 C 240.101562 163.484375 337.589844 172.792969 348.441406 123.386719 " fill-opacity="1" fill-rule="nonzero"/></g></svg>