<svg xmlns="http://www.w3.org/2000/svg" xmlns:xlink="http://www.w3.org/1999/xlink" width="400" zoomAndPan="magnify" viewBox="0 0 300 56.249996" height="75" preserveAspectRatio="xMidYMid meet" version="1.0"><defs><g/><clipPath id="ddc68dedbd"><path d="M 7.53125 0 L 55.46875 0 L 55.46875 55.511719 L 7.53125 55.511719 Z M 7.53125 0 " clip-rule="nonzero"/></clipPath></defs><g fill="#3b82f6" fill-opacity="1"><g transform="translate(55.525521, 42.284064)"><g><path d="M 18.828125 0 L 12.28125 -11.875 L 10.4375 -11.875 L 10.4375 0 L 2.78125 0 L 2.78125 -31.453125 L 15.640625 -31.453125 C 18.117188 -31.453125 20.234375 -31.019531 21.984375 -30.15625 C 23.734375 -29.289062 25.039062 -28.101562 25.90625 -26.59375 C 26.769531 -25.082031 27.203125 -23.40625 27.203125 -21.5625 C 27.203125 -19.46875 26.609375 -17.597656 25.421875 -15.953125 C 24.242188 -14.304688 22.503906 -13.140625 20.203125 -12.453125 L 27.46875 0 Z M 10.4375 -17.296875 L 15.1875 -17.296875 C 16.59375 -17.296875 17.644531 -17.640625 18.34375 -18.328125 C 19.050781 -19.015625 19.40625 -19.984375 19.40625 -21.234375 C 19.40625 -22.429688 19.050781 -23.375 18.34375 -24.0625 C 17.644531 -24.75 16.59375 -25.09375 15.1875 -25.09375 L 10.4375 -25.09375 Z M 10.4375 -17.296875 "/></g></g></g><g fill="#3b82f6" fill-opacity="1"><g transform="translate(84.73578, 42.284064)"><g><path d="M 1.25 -12.546875 C 1.25 -15.117188 1.734375 -17.375 2.703125 -19.3125 C 3.679688 -21.257812 5.003906 -22.753906 6.671875 -23.796875 C 8.347656 -24.835938 10.21875 -25.359375 12.28125 -25.359375 C 14.039062 -25.359375 15.582031 -25 16.90625 -24.28125 C 18.238281 -23.570312 19.265625 -22.632812 19.984375 -21.46875 L 19.984375 -25 L 27.65625 -25 L 27.65625 0 L 19.984375 0 L 19.984375 -3.546875 C 19.234375 -2.378906 18.191406 -1.4375 16.859375 -0.71875 C 15.535156 0 13.992188 0.359375 12.234375 0.359375 C 10.203125 0.359375 8.347656 -0.171875 6.671875 -1.234375 C 5.003906 -2.296875 3.679688 -3.800781 2.703125 -5.75 C 1.734375 -7.707031 1.25 -9.972656 1.25 -12.546875 Z M 19.984375 -12.5 C 19.984375 -14.414062 19.453125 -15.925781 18.390625 -17.03125 C 17.328125 -18.132812 16.035156 -18.6875 14.515625 -18.6875 C 12.992188 -18.6875 11.703125 -18.140625 10.640625 -17.046875 C 9.578125 -15.960938 9.046875 -14.460938 9.046875 -12.546875 C 9.046875 -10.628906 9.578125 -9.109375 10.640625 -7.984375 C 11.703125 -6.867188 12.992188 -6.3125 14.515625 -6.3125 C 16.035156 -6.3125 17.328125 -6.863281 18.390625 -7.96875 C 19.453125 -9.082031 19.984375 -10.59375 19.984375 -12.5 Z M 19.984375 -12.5 "/></g></g></g><g fill="#3b82f6" fill-opacity="1"><g transform="translate(115.155663, 42.284064)"><g><path d="M 15.328125 -18.640625 L 11.203125 -18.640625 L 11.203125 0 L 3.546875 0 L 3.546875 -18.640625 L 0.765625 -18.640625 L 0.765625 -25 L 3.546875 -25 L 3.546875 -25.71875 C 3.546875 -28.800781 4.425781 -31.140625 6.1875 -32.734375 C 7.945312 -34.335938 10.53125 -35.140625 13.9375 -35.140625 C 14.5 -35.140625 14.914062 -35.125 15.1875 -35.09375 L 15.1875 -28.59375 C 13.726562 -28.675781 12.695312 -28.460938 12.09375 -27.953125 C 11.5 -27.453125 11.203125 -26.546875 11.203125 -25.234375 L 11.203125 -25 L 15.328125 -25 Z M 15.328125 -18.640625 "/></g></g></g><g fill="#3b82f6" fill-opacity="1"><g transform="translate(131.284027, 42.284064)"><g><path d="M 15.328125 -18.640625 L 11.203125 -18.640625 L 11.203125 0 L 3.546875 0 L 3.546875 -18.640625 L 0.765625 -18.640625 L 0.765625 -25 L 3.546875 -25 L 3.546875 -25.71875 C 3.546875 -28.800781 4.425781 -31.140625 6.1875 -32.734375 C 7.945312 -34.335938 10.53125 -35.140625 13.9375 -35.140625 C 14.5 -35.140625 14.914062 -35.125 15.1875 -35.09375 L 15.1875 -28.59375 C 13.726562 -28.675781 12.695312 -28.460938 12.09375 -27.953125 C 11.5 -27.453125 11.203125 -26.546875 11.203125 -25.234375 L 11.203125 -25 L 15.328125 -25 Z M 15.328125 -18.640625 "/></g></g></g><g fill="#3b82f6" fill-opacity="1"><g transform="translate(147.412391, 42.284064)"><g><path d="M 10.4375 -33.15625 L 10.4375 0 L 2.78125 0 L 2.78125 -33.15625 Z M 10.4375 -33.15625 "/></g></g></g><g fill="#3b82f6" fill-opacity="1"><g transform="translate(160.628689, 42.284064)"><g><path d="M 26.34375 -12.90625 C 26.34375 -12.1875 26.300781 -11.441406 26.21875 -10.671875 L 8.875 -10.671875 C 8.988281 -9.109375 9.488281 -7.914062 10.375 -7.09375 C 11.257812 -6.28125 12.34375 -5.875 13.625 -5.875 C 15.53125 -5.875 16.859375 -6.679688 17.609375 -8.296875 L 25.765625 -8.296875 C 25.347656 -6.648438 24.59375 -5.164062 23.5 -3.84375 C 22.414062 -2.53125 21.050781 -1.5 19.40625 -0.75 C 17.757812 -0.0078125 15.921875 0.359375 13.890625 0.359375 C 11.441406 0.359375 9.257812 -0.160156 7.34375 -1.203125 C 5.4375 -2.253906 3.941406 -3.75 2.859375 -5.6875 C 1.785156 -7.632812 1.25 -9.90625 1.25 -12.5 C 1.25 -15.101562 1.78125 -17.375 2.84375 -19.3125 C 3.90625 -21.257812 5.390625 -22.753906 7.296875 -23.796875 C 9.210938 -24.835938 11.410156 -25.359375 13.890625 -25.359375 C 16.304688 -25.359375 18.457031 -24.847656 20.34375 -23.828125 C 22.226562 -22.816406 23.695312 -21.367188 24.75 -19.484375 C 25.8125 -17.609375 26.34375 -15.414062 26.34375 -12.90625 Z M 18.5 -14.921875 C 18.5 -16.234375 18.050781 -17.273438 17.15625 -18.046875 C 16.257812 -18.828125 15.140625 -19.21875 13.796875 -19.21875 C 12.515625 -19.21875 11.429688 -18.84375 10.546875 -18.09375 C 9.671875 -17.351562 9.128906 -16.296875 8.921875 -14.921875 Z M 18.5 -14.921875 "/></g></g></g><g fill="#3b82f6" fill-opacity="1"><g transform="translate(188.22611, 42.284064)"><g><path d="M 10.4375 -25.3125 L 10.4375 -18.953125 L 20.703125 -18.953125 L 20.703125 -13.046875 L 10.4375 -13.046875 L 10.4375 -6.140625 L 22.046875 -6.140625 L 22.046875 0 L 2.78125 0 L 2.78125 -31.453125 L 22.046875 -31.453125 L 22.046875 -25.3125 Z M 10.4375 -25.3125 "/></g></g></g><g fill="#3b82f6" fill-opacity="1"><g transform="translate(212.463452, 42.284064)"><g><path d="M 1.25 -12.546875 C 1.25 -15.117188 1.734375 -17.375 2.703125 -19.3125 C 3.679688 -21.257812 5.003906 -22.753906 6.671875 -23.796875 C 8.347656 -24.835938 10.21875 -25.359375 12.28125 -25.359375 C 14.039062 -25.359375 15.582031 -25 16.90625 -24.28125 C 18.238281 -23.570312 19.265625 -22.632812 19.984375 -21.46875 L 19.984375 -25 L 27.65625 -25 L 27.65625 0 L 19.984375 0 L 19.984375 -3.546875 C 19.234375 -2.378906 18.191406 -1.4375 16.859375 -0.71875 C 15.535156 0 13.992188 0.359375 12.234375 0.359375 C 10.203125 0.359375 8.347656 -0.171875 6.671875 -1.234375 C 5.003906 -2.296875 3.679688 -3.800781 2.703125 -5.75 C 1.734375 -7.707031 1.25 -9.972656 1.25 -12.546875 Z M 19.984375 -12.5 C 19.984375 -14.414062 19.453125 -15.925781 18.390625 -17.03125 C 17.328125 -18.132812 16.035156 -18.6875 14.515625 -18.6875 C 12.992188 -18.6875 11.703125 -18.140625 10.640625 -17.046875 C 9.578125 -15.960938 9.046875 -14.460938 9.046875 -12.546875 C 9.046875 -10.628906 9.578125 -9.109375 10.640625 -7.984375 C 11.703125 -6.867188 12.992188 -6.3125 14.515625 -6.3125 C 16.035156 -6.3125 17.328125 -6.863281 18.390625 -7.96875 C 19.453125 -9.082031 19.984375 -10.59375 19.984375 -12.5 Z M 19.984375 -12.5 "/></g></g></g><g fill="#3b82f6" fill-opacity="1"><g transform="translate(242.883335, 42.284064)"><g><path d="M 12.953125 0.359375 C 10.765625 0.359375 8.820312 -0.0078125 7.125 -0.75 C 5.425781 -1.5 4.082031 -2.523438 3.09375 -3.828125 C 2.101562 -5.128906 1.550781 -6.585938 1.4375 -8.203125 L 9 -8.203125 C 9.09375 -7.335938 9.5 -6.632812 10.21875 -6.09375 C 10.9375 -5.550781 11.816406 -5.28125 12.859375 -5.28125 C 13.816406 -5.28125 14.554688 -5.46875 15.078125 -5.84375 C 15.597656 -6.21875 15.859375 -6.703125 15.859375 -7.296875 C 15.859375 -8.015625 15.484375 -8.546875 14.734375 -8.890625 C 13.992188 -9.234375 12.785156 -9.613281 11.109375 -10.03125 C 9.316406 -10.457031 7.820312 -10.898438 6.625 -11.359375 C 5.4375 -11.816406 4.40625 -12.546875 3.53125 -13.546875 C 2.664062 -14.554688 2.234375 -15.910156 2.234375 -17.609375 C 2.234375 -19.046875 2.628906 -20.351562 3.421875 -21.53125 C 4.210938 -22.707031 5.378906 -23.640625 6.921875 -24.328125 C 8.460938 -25.015625 10.289062 -25.359375 12.40625 -25.359375 C 15.550781 -25.359375 18.023438 -24.582031 19.828125 -23.03125 C 21.640625 -21.476562 22.675781 -19.414062 22.9375 -16.84375 L 15.859375 -16.84375 C 15.742188 -17.71875 15.363281 -18.40625 14.71875 -18.90625 C 14.070312 -19.414062 13.226562 -19.671875 12.1875 -19.671875 C 11.289062 -19.671875 10.601562 -19.5 10.125 -19.15625 C 9.644531 -18.8125 9.40625 -18.34375 9.40625 -17.75 C 9.40625 -17.03125 9.785156 -16.488281 10.546875 -16.125 C 11.316406 -15.769531 12.503906 -15.414062 14.109375 -15.0625 C 15.960938 -14.582031 17.472656 -14.109375 18.640625 -13.640625 C 19.804688 -13.179688 20.828125 -12.4375 21.703125 -11.40625 C 22.585938 -10.375 23.046875 -8.992188 23.078125 -7.265625 C 23.078125 -5.796875 22.664062 -4.484375 21.84375 -3.328125 C 21.019531 -2.179688 19.835938 -1.28125 18.296875 -0.625 C 16.765625 0.03125 14.984375 0.359375 12.953125 0.359375 Z M 12.953125 0.359375 "/></g></g></g><g fill="#3b82f6" fill-opacity="1"><g transform="translate(267.882299, 42.284064)"><g><path d="M 26.34375 -12.90625 C 26.34375 -12.1875 26.300781 -11.441406 26.21875 -10.671875 L 8.875 -10.671875 C 8.988281 -9.109375 9.488281 -7.914062 10.375 -7.09375 C 11.257812 -6.28125 12.34375 -5.875 13.625 -5.875 C 15.53125 -5.875 16.859375 -6.679688 17.609375 -8.296875 L 25.765625 -8.296875 C 25.347656 -6.648438 24.59375 -5.164062 23.5 -3.84375 C 22.414062 -2.53125 21.050781 -1.5 19.40625 -0.75 C 17.757812 -0.0078125 15.921875 0.359375 13.890625 0.359375 C 11.441406 0.359375 9.257812 -0.160156 7.34375 -1.203125 C 5.4375 -2.253906 3.941406 -3.75 2.859375 -5.6875 C 1.785156 -7.632812 1.25 -9.90625 1.25 -12.5 C 1.25 -15.101562 1.78125 -17.375 2.84375 -19.3125 C 3.90625 -21.257812 5.390625 -22.753906 7.296875 -23.796875 C 9.210938 -24.835938 11.410156 -25.359375 13.890625 -25.359375 C 16.304688 -25.359375 18.457031 -24.847656 20.34375 -23.828125 C 22.226562 -22.816406 23.695312 -21.367188 24.75 -19.484375 C 25.8125 -17.609375 26.34375 -15.414062 26.34375 -12.90625 Z M 18.5 -14.921875 C 18.5 -16.234375 18.050781 -17.273438 17.15625 -18.046875 C 16.257812 -18.828125 15.140625 -19.21875 13.796875 -19.21875 C 12.515625 -19.21875 11.429688 -18.84375 10.546875 -18.09375 C 9.671875 -17.351562 9.128906 -16.296875 8.921875 -14.921875 Z M 18.5 -14.921875 "/></g></g></g><g clip-path="url(#ddc68dedbd)"><path fill="#3b82f6" d="M 55.320312 18.265625 C 56.621094 12.351562 48.777344 9.703125 48.777344 9.703125 C 48.777344 9.703125 47.933594 1.507812 41.699219 1.132812 C 32.886719 0.605469 32.144531 16.289062 31.761719 21.417969 C 32.007812 16.457031 33.15625 1.75 25.84375 0.144531 C 19.929688 -1.15625 17.371094 6.800781 17.371094 6.800781 C 17.371094 6.800781 9.089844 7.53125 8.714844 13.765625 C 8.183594 22.578125 23.476562 23.410156 28.605469 23.792969 C 23.644531 23.546875 9.28125 22.8125 7.675781 30.125 C 6.375 36.039062 14.21875 38.710938 14.21875 38.710938 C 14.21875 38.710938 13.910156 45.898438 20.144531 46.273438 C 22.875 46.4375 25.386719 45.15625 26.738281 42.855469 C 28.859375 39.253906 28.960938 35.953125 29.53125 32.902344 C 29.796875 31.484375 29.761719 31.210938 29.960938 30.183594 C 29.980469 29.972656 30.070312 29.8125 30.199219 29.699219 C 30.203125 40.457031 27.558594 47.269531 21.839844 53.546875 C 21.800781 53.589844 21.804688 53.660156 21.847656 53.695312 C 22.558594 54.28125 23.269531 54.875 23.976562 55.46875 C 24.046875 55.53125 24.152344 55.519531 24.210938 55.449219 C 29.585938 48.796875 31.765625 40.910156 31.695312 29.769531 C 31.859375 29.910156 31.964844 30.097656 31.964844 30.328125 C 31.90625 33.929688 32.3125 37.652344 33.121094 41.472656 C 33.753906 43.925781 34.953125 46.066406 37.539062 46.632812 C 43.453125 47.933594 45.875 41.109375 45.875 41.109375 C 45.875 41.109375 54.207031 40.375 54.582031 34.144531 C 55.113281 25.328125 39.453125 24.335938 34.324219 23.953125 C 39.285156 24.199219 53.714844 25.578125 55.320312 18.265625 " fill-opacity="1" fill-rule="nonzero"/></g></svg>