<svg xmlns="http://www.w3.org/2000/svg" xmlns:xlink="http://www.w3.org/1999/xlink" width="400" zoomAndPan="magnify" viewBox="0 0 300 56.249996" height="75" preserveAspectRatio="xMidYMid meet" version="1.0"><defs><g/><clipPath id="c078b87dea"><path d="M 5.085938 0 L 56 0 L 56 55 L 5.085938 55 Z M 5.085938 0 " clip-rule="nonzero"/></clipPath></defs><g fill="#3b82f6" fill-opacity="1"><g transform="translate(56.099643, 44.52836)"><g><path d="M -0.140625 -25.578125 C -0.046875 -26.785156 0.113281 -27.617188 0.34375 -28.078125 C 0.488281 -28.347656 0.738281 -28.625 1.09375 -28.90625 C 1.457031 -29.1875 1.972656 -29.519531 2.640625 -29.90625 C 5.921875 -31.789062 9.800781 -32.847656 14.28125 -33.078125 C 18.832031 -33.347656 22.671875 -32.109375 25.796875 -29.359375 C 27.234375 -28.078125 28.378906 -26.429688 29.234375 -24.421875 C 29.648438 -23.398438 29.847656 -22.378906 29.828125 -21.359375 C 29.816406 -20.347656 29.570312 -19.367188 29.09375 -18.421875 C 28.90625 -18.015625 28.671875 -17.644531 28.390625 -17.3125 C 28.117188 -16.976562 27.804688 -16.675781 27.453125 -16.40625 C 26.867188 -15.957031 26.351562 -15.441406 25.90625 -14.859375 C 25.5625 -14.398438 25.40625 -13.914062 25.4375 -13.40625 C 25.4375 -13.207031 25.453125 -13.007812 25.484375 -12.8125 C 25.523438 -12.625 25.582031 -12.445312 25.65625 -12.28125 L 25.6875 -12.28125 L 25.6875 -12.25 C 25.800781 -11.90625 25.953125 -11.570312 26.140625 -11.25 C 26.347656 -10.894531 26.582031 -10.585938 26.84375 -10.328125 C 27 -10.171875 27.148438 -10.023438 27.296875 -9.890625 C 27.441406 -9.753906 27.597656 -9.628906 27.765625 -9.515625 C 28.015625 -9.296875 28.363281 -9.039062 28.8125 -8.75 C 29.039062 -8.59375 29.421875 -8.351562 29.953125 -8.03125 L 29.96875 -8.03125 C 30.0625 -7.957031 30.148438 -7.894531 30.234375 -7.84375 C 30.316406 -7.789062 30.410156 -7.738281 30.515625 -7.6875 C 30.609375 -7.632812 30.703125 -7.578125 30.796875 -7.515625 C 30.898438 -7.460938 31.003906 -7.410156 31.109375 -7.359375 C 31.628906 -7.066406 32.023438 -6.835938 32.296875 -6.671875 C 32.785156 -6.367188 33.078125 -5.984375 33.171875 -5.515625 C 33.265625 -5.046875 33.15625 -4.578125 32.84375 -4.109375 C 32.382812 -3.453125 31.769531 -2.773438 31 -2.078125 C 30.738281 -1.847656 30.488281 -1.632812 30.25 -1.4375 C 30.007812 -1.238281 29.769531 -1.050781 29.53125 -0.875 C 29.300781 -0.695312 29.066406 -0.546875 28.828125 -0.421875 C 27.835938 0.210938 26.742188 0.28125 25.546875 -0.21875 C 23.835938 -0.882812 22.109375 -2.21875 20.359375 -4.21875 C 18.671875 -6.144531 17.320312 -7.648438 16.3125 -8.734375 C 16.132812 -8.910156 15.953125 -9.0625 15.765625 -9.1875 C 15.585938 -9.320312 15.414062 -9.4375 15.25 -9.53125 C 15.082031 -9.625 14.910156 -9.703125 14.734375 -9.765625 C 14.347656 -9.910156 13.875 -9.734375 13.3125 -9.234375 C 12.6875 -8.640625 12.441406 -7.492188 12.578125 -5.796875 C 12.660156 -4.859375 12.742188 -4.046875 12.828125 -3.359375 C 12.910156 -2.679688 12.992188 -2.113281 13.078125 -1.65625 C 13.140625 -1.363281 13.140625 -1.0625 13.078125 -0.75 C 13.015625 -0.4375 12.867188 -0.191406 12.640625 -0.015625 C 12.347656 0.203125 11.910156 0.347656 11.328125 0.421875 C 11.035156 0.441406 10.726562 0.460938 10.40625 0.484375 C 10.082031 0.515625 9.742188 0.53125 9.390625 0.53125 C 9.046875 0.539062 8.710938 0.535156 8.390625 0.515625 C 8.078125 0.503906 7.773438 0.492188 7.484375 0.484375 C 7.273438 0.460938 7.0625 0.4375 6.84375 0.40625 C 6.632812 0.382812 6.429688 0.351562 6.234375 0.3125 C 5.972656 0.257812 5.726562 0.164062 5.5 0.03125 C 5.269531 -0.101562 5.066406 -0.265625 4.890625 -0.453125 C 4.253906 -1.140625 3.578125 -2.71875 2.859375 -5.1875 C 2.671875 -5.78125 2.503906 -6.332031 2.359375 -6.84375 C 2.222656 -7.351562 2.097656 -7.816406 1.984375 -8.234375 C 1.867188 -8.648438 1.769531 -9.019531 1.6875 -9.34375 C 1.601562 -9.664062 1.539062 -9.941406 1.5 -10.171875 C 1.46875 -10.265625 1.441406 -10.347656 1.421875 -10.421875 C 1.398438 -10.503906 1.382812 -10.585938 1.375 -10.671875 C 1.34375 -10.847656 1.304688 -11.023438 1.265625 -11.203125 C 0.796875 -13.378906 0.394531 -15.722656 0.0625 -18.234375 C -0.269531 -20.765625 -0.335938 -23.210938 -0.140625 -25.578125 Z M 17.390625 -24.578125 C 16.628906 -24.796875 15.851562 -24.882812 15.0625 -24.84375 C 14.28125 -24.8125 13.472656 -24.648438 12.640625 -24.359375 C 12.390625 -24.253906 12.171875 -24.132812 11.984375 -24 C 11.804688 -23.875 11.65625 -23.722656 11.53125 -23.546875 C 11.40625 -23.378906 11.296875 -23.179688 11.203125 -22.953125 C 11.066406 -22.554688 11.054688 -21.894531 11.171875 -20.96875 C 11.234375 -20.507812 11.3125 -20.125 11.40625 -19.8125 C 11.507812 -19.507812 11.613281 -19.296875 11.71875 -19.171875 C 12 -18.859375 12.332031 -18.632812 12.71875 -18.5 C 13.101562 -18.363281 13.570312 -18.316406 14.125 -18.359375 C 14.695312 -18.421875 15.289062 -18.507812 15.90625 -18.625 C 16.5 -18.75 17.050781 -18.9375 17.5625 -19.1875 C 18.363281 -19.550781 18.945312 -20.1875 19.3125 -21.09375 C 19.632812 -21.925781 19.519531 -22.722656 18.96875 -23.484375 C 18.726562 -23.753906 18.476562 -23.976562 18.21875 -24.15625 C 17.96875 -24.34375 17.691406 -24.484375 17.390625 -24.578125 Z M 17.390625 -24.578125 "/></g></g></g><g fill="#3b82f6" fill-opacity="1"><g transform="translate(90.862985, 44.52836)"><g><path d="M 9.4375 -8.953125 C 9.050781 -8.304688 9.113281 -7.597656 9.625 -6.828125 C 10.101562 -6.097656 10.941406 -5.914062 12.140625 -6.28125 C 12.421875 -6.363281 12.675781 -6.457031 12.90625 -6.5625 C 13.144531 -6.675781 13.347656 -6.796875 13.515625 -6.921875 C 13.679688 -7.046875 13.828125 -7.179688 13.953125 -7.328125 C 14.160156 -7.566406 14.328125 -7.8125 14.453125 -8.0625 C 14.585938 -8.320312 14.675781 -8.570312 14.71875 -8.8125 C 14.75 -8.945312 14.757812 -9.066406 14.75 -9.171875 C 14.75 -9.285156 14.734375 -9.394531 14.703125 -9.5 C 14.671875 -9.601562 14.628906 -9.691406 14.578125 -9.765625 C 14.523438 -9.847656 14.457031 -9.929688 14.375 -10.015625 C 14 -10.410156 13.523438 -10.65625 12.953125 -10.75 C 12.742188 -10.769531 12.535156 -10.773438 12.328125 -10.765625 C 12.128906 -10.765625 11.921875 -10.738281 11.703125 -10.6875 C 11.484375 -10.632812 11.257812 -10.554688 11.03125 -10.453125 C 10.382812 -10.191406 9.851562 -9.691406 9.4375 -8.953125 Z M 13.265625 -17.03125 C 11.921875 -17.320312 10.59375 -17.347656 9.28125 -17.109375 C 8.300781 -16.929688 7.484375 -16.597656 6.828125 -16.109375 C 5.953125 -15.429688 4.953125 -15.203125 3.828125 -15.421875 C 2.671875 -15.660156 1.847656 -16.3125 1.359375 -17.375 C 0.847656 -18.5 0.976562 -19.46875 1.75 -20.28125 C 2.375 -20.957031 2.941406 -21.46875 3.453125 -21.8125 C 3.816406 -22.070312 4.191406 -22.300781 4.578125 -22.5 C 5.066406 -22.757812 5.5625 -22.972656 6.0625 -23.140625 C 6.570312 -23.316406 7.097656 -23.453125 7.640625 -23.546875 C 8.660156 -23.703125 9.679688 -23.796875 10.703125 -23.828125 C 11.046875 -23.835938 11.390625 -23.835938 11.734375 -23.828125 C 12.078125 -23.816406 12.421875 -23.789062 12.765625 -23.75 C 13.109375 -23.71875 13.445312 -23.675781 13.78125 -23.625 C 14.113281 -23.570312 14.441406 -23.507812 14.765625 -23.4375 C 15.816406 -23.226562 16.832031 -22.90625 17.8125 -22.46875 C 18.875 -22.019531 19.875 -21.109375 20.8125 -19.734375 C 21.289062 -19.046875 21.628906 -18.289062 21.828125 -17.46875 C 22.035156 -16.644531 22.113281 -15.765625 22.0625 -14.828125 C 21.9375 -13.078125 21.867188 -11.007812 21.859375 -8.625 C 21.847656 -6.070312 22.144531 -4.175781 22.75 -2.9375 L 22.78125 -2.90625 L 22.796875 -2.859375 C 22.867188 -2.660156 22.941406 -2.441406 23.015625 -2.203125 C 23.117188 -1.910156 23.164062 -1.613281 23.15625 -1.3125 C 23.132812 -0.757812 22.90625 -0.269531 22.46875 0.15625 C 22.0625 0.550781 21.457031 0.828125 20.65625 0.984375 C 19.863281 1.128906 19.132812 1.09375 18.46875 0.875 C 17.851562 0.664062 17.410156 0.488281 17.140625 0.34375 C 16.578125 0.0390625 16.160156 -0.378906 15.890625 -0.921875 C 15.859375 -0.960938 15.832031 -1.007812 15.8125 -1.0625 C 15.789062 -1.113281 15.765625 -1.164062 15.734375 -1.21875 C 15.160156 -0.832031 14.65625 -0.539062 14.21875 -0.34375 C 13.800781 -0.175781 13.375 -0.0234375 12.9375 0.109375 C 12.5 0.242188 12.050781 0.347656 11.59375 0.421875 C 11.144531 0.492188 10.679688 0.535156 10.203125 0.546875 C 8.742188 0.578125 7.359375 0.375 6.046875 -0.0625 C 5.796875 -0.15625 5.546875 -0.25 5.296875 -0.34375 C 5.054688 -0.4375 4.820312 -0.539062 4.59375 -0.65625 C 4.363281 -0.769531 4.140625 -0.890625 3.921875 -1.015625 C 3.703125 -1.140625 3.484375 -1.273438 3.265625 -1.421875 C 2.390625 -2.003906 1.71875 -2.734375 1.25 -3.609375 C 0.8125 -4.472656 0.59375 -5.457031 0.59375 -6.5625 C 0.59375 -8.132812 1.015625 -9.550781 1.859375 -10.8125 C 2.285156 -11.394531 2.671875 -11.925781 3.015625 -12.40625 C 3.410156 -12.925781 4.222656 -13.632812 5.453125 -14.53125 C 6.085938 -15 6.785156 -15.367188 7.546875 -15.640625 C 8.304688 -15.921875 9.128906 -16.113281 10.015625 -16.21875 C 11.523438 -16.375 13.117188 -16.300781 14.796875 -16 C 14.597656 -16.300781 14.085938 -16.644531 13.265625 -17.03125 Z M 13.265625 -17.03125 "/></g></g></g><g fill="#3b82f6" fill-opacity="1"><g transform="translate(114.250029, 44.52836)"><g><path d="M 13.546875 -13 C 13.578125 -11.875 13.632812 -10.359375 13.71875 -8.453125 C 13.71875 -8.328125 13.722656 -8.15625 13.734375 -7.9375 C 13.796875 -6.84375 13.835938 -6.054688 13.859375 -5.578125 C 13.878906 -5.097656 13.894531 -4.5625 13.90625 -3.96875 C 13.914062 -3.375 13.90625 -2.945312 13.875 -2.6875 C 13.851562 -2.425781 13.820312 -2.222656 13.78125 -2.078125 C 13.65625 -1.554688 13.390625 -1.125 12.984375 -0.78125 C 12.585938 -0.4375 12.082031 -0.179688 11.46875 -0.015625 C 11.070312 0.078125 10.65625 0.132812 10.21875 0.15625 C 9.789062 0.1875 9.347656 0.175781 8.890625 0.125 C 8.429688 0.0703125 7.960938 -0.0078125 7.484375 -0.125 C 6.671875 -0.332031 6.054688 -0.753906 5.640625 -1.390625 C 5.222656 -2.035156 5.003906 -2.84375 4.984375 -3.8125 C 4.972656 -3.90625 4.960938 -4.019531 4.953125 -4.15625 C 4.941406 -4.289062 4.9375 -4.441406 4.9375 -4.609375 C 4.9375 -4.773438 4.9375 -4.96875 4.9375 -5.1875 L 4.9375 -5.203125 C 5 -5.960938 4.960938 -7.675781 4.828125 -10.34375 C 4.785156 -11.207031 4.734375 -11.9375 4.671875 -12.53125 C 4.609375 -13.132812 4.539062 -13.550781 4.46875 -13.78125 C 4.15625 -13.769531 3.8125 -13.789062 3.4375 -13.84375 C 3.03125 -13.84375 2.644531 -13.890625 2.28125 -13.984375 C 1.851562 -14.066406 1.550781 -14.160156 1.375 -14.265625 C 1 -14.472656 0.742188 -14.890625 0.609375 -15.515625 C 0.535156 -15.785156 0.519531 -16.347656 0.5625 -17.203125 C 0.613281 -18.054688 0.6875 -18.660156 0.78125 -19.015625 L 0.78125 -19.03125 L 0.8125 -19.078125 C 0.84375 -19.140625 0.863281 -19.191406 0.875 -19.234375 C 0.882812 -19.273438 0.90625 -19.3125 0.9375 -19.34375 C 0.96875 -19.414062 1.039062 -19.519531 1.15625 -19.65625 C 1.21875 -19.726562 1.289062 -19.8125 1.375 -19.90625 L 2.3125 -20.828125 L 2.3125 -20.390625 C 2.40625 -20.421875 2.503906 -20.441406 2.609375 -20.453125 C 2.753906 -20.503906 3.414062 -20.566406 4.59375 -20.640625 C 4.707031 -22.023438 4.914062 -23.222656 5.21875 -24.234375 C 5.53125 -25.242188 5.941406 -26.085938 6.453125 -26.765625 C 7.179688 -27.796875 8.035156 -28.6875 9.015625 -29.4375 C 9.347656 -29.695312 9.71875 -29.9375 10.125 -30.15625 C 10.539062 -30.382812 10.976562 -30.59375 11.4375 -30.78125 C 11.90625 -30.976562 12.40625 -31.148438 12.9375 -31.296875 C 14.5625 -31.773438 16.191406 -31.910156 17.828125 -31.703125 C 18.722656 -31.585938 19.429688 -31.226562 19.953125 -30.625 C 20.484375 -30.03125 20.796875 -29.238281 20.890625 -28.25 C 20.992188 -27.269531 20.867188 -26.46875 20.515625 -25.84375 C 20.160156 -25.226562 19.582031 -24.882812 18.78125 -24.8125 C 18.175781 -24.75 17.597656 -24.625 17.046875 -24.4375 C 16.492188 -24.257812 15.953125 -24.015625 15.421875 -23.703125 C 14.578125 -23.191406 14.097656 -22.253906 13.984375 -20.890625 C 14.285156 -20.890625 14.632812 -20.890625 15.03125 -20.890625 C 15.425781 -20.890625 15.726562 -20.890625 15.9375 -20.890625 C 16.144531 -20.890625 16.378906 -20.882812 16.640625 -20.875 C 16.910156 -20.875 17.117188 -20.867188 17.265625 -20.859375 C 17.421875 -20.859375 17.578125 -20.84375 17.734375 -20.8125 C 17.890625 -20.789062 18.015625 -20.765625 18.109375 -20.734375 C 18.210938 -20.710938 18.300781 -20.679688 18.375 -20.640625 C 18.59375 -20.503906 18.757812 -20.328125 18.875 -20.109375 C 19 -19.898438 19.082031 -19.660156 19.125 -19.390625 C 19.257812 -18.878906 19.28125 -18.242188 19.1875 -17.484375 C 19.144531 -17.109375 19.101562 -16.796875 19.0625 -16.546875 C 19.03125 -16.296875 18.992188 -16.085938 18.953125 -15.921875 C 18.929688 -15.847656 18.910156 -15.785156 18.890625 -15.734375 C 18.867188 -15.691406 18.832031 -15.625 18.78125 -15.53125 C 18.726562 -15.425781 18.640625 -15.328125 18.515625 -15.234375 L 18.359375 -15.03125 L 18.34375 -15.03125 L 18.34375 -15.015625 L 18.140625 -14.8125 L 18.046875 -14.75 L 17.9375 -14.703125 C 17.863281 -14.671875 17.769531 -14.632812 17.65625 -14.59375 L 17.640625 -14.578125 L 17.609375 -14.578125 C 17.453125 -14.523438 17.296875 -14.476562 17.140625 -14.4375 L 17.046875 -14.4375 C 17.015625 -14.4375 16.984375 -14.429688 16.953125 -14.421875 C 16.929688 -14.421875 16.894531 -14.414062 16.84375 -14.40625 C 16.789062 -14.394531 16.738281 -14.382812 16.6875 -14.375 C 16.519531 -14.34375 15.859375 -14.300781 14.703125 -14.25 C 14.265625 -14.21875 13.960938 -14.109375 13.796875 -13.921875 C 13.628906 -13.742188 13.546875 -13.4375 13.546875 -13 Z M 13.546875 -13 "/></g></g></g><g fill="#3b82f6" fill-opacity="1"><g transform="translate(134.924263, 44.52836)"><g><path d="M 13.546875 -13 C 13.578125 -11.875 13.632812 -10.359375 13.71875 -8.453125 C 13.71875 -8.328125 13.722656 -8.15625 13.734375 -7.9375 C 13.796875 -6.84375 13.835938 -6.054688 13.859375 -5.578125 C 13.878906 -5.097656 13.894531 -4.5625 13.90625 -3.96875 C 13.914062 -3.375 13.90625 -2.945312 13.875 -2.6875 C 13.851562 -2.425781 13.820312 -2.222656 13.78125 -2.078125 C 13.65625 -1.554688 13.390625 -1.125 12.984375 -0.78125 C 12.585938 -0.4375 12.082031 -0.179688 11.46875 -0.015625 C 11.070312 0.078125 10.65625 0.132812 10.21875 0.15625 C 9.789062 0.1875 9.347656 0.175781 8.890625 0.125 C 8.429688 0.0703125 7.960938 -0.0078125 7.484375 -0.125 C 6.671875 -0.332031 6.054688 -0.753906 5.640625 -1.390625 C 5.222656 -2.035156 5.003906 -2.84375 4.984375 -3.8125 C 4.972656 -3.90625 4.960938 -4.019531 4.953125 -4.15625 C 4.941406 -4.289062 4.9375 -4.441406 4.9375 -4.609375 C 4.9375 -4.773438 4.9375 -4.96875 4.9375 -5.1875 L 4.9375 -5.203125 C 5 -5.960938 4.960938 -7.675781 4.828125 -10.34375 C 4.785156 -11.207031 4.734375 -11.9375 4.671875 -12.53125 C 4.609375 -13.132812 4.539062 -13.550781 4.46875 -13.78125 C 4.15625 -13.769531 3.8125 -13.789062 3.4375 -13.84375 C 3.03125 -13.84375 2.644531 -13.890625 2.28125 -13.984375 C 1.851562 -14.066406 1.550781 -14.160156 1.375 -14.265625 C 1 -14.472656 0.742188 -14.890625 0.609375 -15.515625 C 0.535156 -15.785156 0.519531 -16.347656 0.5625 -17.203125 C 0.613281 -18.054688 0.6875 -18.660156 0.78125 -19.015625 L 0.78125 -19.03125 L 0.8125 -19.078125 C 0.84375 -19.140625 0.863281 -19.191406 0.875 -19.234375 C 0.882812 -19.273438 0.90625 -19.3125 0.9375 -19.34375 C 0.96875 -19.414062 1.039062 -19.519531 1.15625 -19.65625 C 1.21875 -19.726562 1.289062 -19.8125 1.375 -19.90625 L 2.3125 -20.828125 L 2.3125 -20.390625 C 2.40625 -20.421875 2.503906 -20.441406 2.609375 -20.453125 C 2.753906 -20.503906 3.414062 -20.566406 4.59375 -20.640625 C 4.707031 -22.023438 4.914062 -23.222656 5.21875 -24.234375 C 5.53125 -25.242188 5.941406 -26.085938 6.453125 -26.765625 C 7.179688 -27.796875 8.035156 -28.6875 9.015625 -29.4375 C 9.347656 -29.695312 9.71875 -29.9375 10.125 -30.15625 C 10.539062 -30.382812 10.976562 -30.59375 11.4375 -30.78125 C 11.90625 -30.976562 12.40625 -31.148438 12.9375 -31.296875 C 14.5625 -31.773438 16.191406 -31.910156 17.828125 -31.703125 C 18.722656 -31.585938 19.429688 -31.226562 19.953125 -30.625 C 20.484375 -30.03125 20.796875 -29.238281 20.890625 -28.25 C 20.992188 -27.269531 20.867188 -26.46875 20.515625 -25.84375 C 20.160156 -25.226562 19.582031 -24.882812 18.78125 -24.8125 C 18.175781 -24.75 17.597656 -24.625 17.046875 -24.4375 C 16.492188 -24.257812 15.953125 -24.015625 15.421875 -23.703125 C 14.578125 -23.191406 14.097656 -22.253906 13.984375 -20.890625 C 14.285156 -20.890625 14.632812 -20.890625 15.03125 -20.890625 C 15.425781 -20.890625 15.726562 -20.890625 15.9375 -20.890625 C 16.144531 -20.890625 16.378906 -20.882812 16.640625 -20.875 C 16.910156 -20.875 17.117188 -20.867188 17.265625 -20.859375 C 17.421875 -20.859375 17.578125 -20.84375 17.734375 -20.8125 C 17.890625 -20.789062 18.015625 -20.765625 18.109375 -20.734375 C 18.210938 -20.710938 18.300781 -20.679688 18.375 -20.640625 C 18.59375 -20.503906 18.757812 -20.328125 18.875 -20.109375 C 19 -19.898438 19.082031 -19.660156 19.125 -19.390625 C 19.257812 -18.878906 19.28125 -18.242188 19.1875 -17.484375 C 19.144531 -17.109375 19.101562 -16.796875 19.0625 -16.546875 C 19.03125 -16.296875 18.992188 -16.085938 18.953125 -15.921875 C 18.929688 -15.847656 18.910156 -15.785156 18.890625 -15.734375 C 18.867188 -15.691406 18.832031 -15.625 18.78125 -15.53125 C 18.726562 -15.425781 18.640625 -15.328125 18.515625 -15.234375 L 18.359375 -15.03125 L 18.34375 -15.03125 L 18.34375 -15.015625 L 18.140625 -14.8125 L 18.046875 -14.75 L 17.9375 -14.703125 C 17.863281 -14.671875 17.769531 -14.632812 17.65625 -14.59375 L 17.640625 -14.578125 L 17.609375 -14.578125 C 17.453125 -14.523438 17.296875 -14.476562 17.140625 -14.4375 L 17.046875 -14.4375 C 17.015625 -14.4375 16.984375 -14.429688 16.953125 -14.421875 C 16.929688 -14.421875 16.894531 -14.414062 16.84375 -14.40625 C 16.789062 -14.394531 16.738281 -14.382812 16.6875 -14.375 C 16.519531 -14.34375 15.859375 -14.300781 14.703125 -14.25 C 14.265625 -14.21875 13.960938 -14.109375 13.796875 -13.921875 C 13.628906 -13.742188 13.546875 -13.4375 13.546875 -13 Z M 13.546875 -13 "/></g></g></g><g fill="#3b82f6" fill-opacity="1"><g transform="translate(155.598497, 44.52836)"><g><path d="M 9.796875 -27.921875 C 9.335938 -24.285156 9.171875 -20.285156 9.296875 -15.921875 C 9.429688 -11.566406 9.941406 -7.722656 10.828125 -4.390625 L 10.828125 -4.375 C 10.847656 -4.3125 10.867188 -4.242188 10.890625 -4.171875 C 10.910156 -4.097656 10.925781 -4.03125 10.9375 -3.96875 C 10.957031 -3.90625 10.976562 -3.835938 11 -3.765625 C 11.019531 -3.691406 11.035156 -3.617188 11.046875 -3.546875 C 11.066406 -3.472656 11.085938 -3.398438 11.109375 -3.328125 C 11.242188 -2.921875 11.328125 -2.503906 11.359375 -2.078125 L 11.359375 -2.03125 C 11.359375 -1.144531 10.960938 -0.503906 10.171875 -0.109375 C 9.535156 0.222656 8.789062 0.410156 7.9375 0.453125 C 7.78125 0.472656 7.617188 0.484375 7.453125 0.484375 C 7.296875 0.484375 7.132812 0.476562 6.96875 0.46875 C 6.8125 0.457031 6.65625 0.445312 6.5 0.4375 C 6.34375 0.425781 6.179688 0.40625 6.015625 0.375 C 5.859375 0.351562 5.695312 0.332031 5.53125 0.3125 C 4.71875 0.144531 4.117188 -0.0625 3.734375 -0.3125 C 3.066406 -0.75 2.566406 -1.375 2.234375 -2.1875 C 1.921875 -2.914062 1.6875 -3.628906 1.53125 -4.328125 C 1.195312 -5.660156 0.941406 -7.347656 0.765625 -9.390625 C 0.585938 -11.429688 0.484375 -13.53125 0.453125 -15.6875 C 0.441406 -16.769531 0.445312 -17.832031 0.46875 -18.875 C 0.488281 -19.914062 0.53125 -20.929688 0.59375 -21.921875 C 0.707031 -23.921875 0.90625 -25.546875 1.1875 -26.796875 C 1.414062 -27.992188 1.710938 -28.929688 2.078125 -29.609375 C 2.410156 -30.242188 2.84375 -30.6875 3.375 -30.9375 C 3.90625 -31.1875 4.53125 -31.332031 5.25 -31.375 C 5.9375 -31.414062 6.554688 -31.410156 7.109375 -31.359375 C 7.953125 -31.253906 8.640625 -30.988281 9.171875 -30.5625 C 9.765625 -30.082031 9.972656 -29.203125 9.796875 -27.921875 Z M 9.796875 -27.921875 "/></g></g></g><g fill="#3b82f6" fill-opacity="1"><g transform="translate(167.19357, 44.52836)"><g><path d="M 9.5 -8.625 C 9.457031 -8.59375 9.429688 -8.570312 9.421875 -8.5625 C 9.410156 -8.5625 9.398438 -8.550781 9.390625 -8.53125 C 10.085938 -7.394531 10.90625 -6.628906 11.84375 -6.234375 C 12.84375 -5.816406 14.03125 -5.671875 15.40625 -5.796875 C 16.425781 -5.890625 17.671875 -6.421875 19.140625 -7.390625 C 19.710938 -7.773438 20.269531 -8.023438 20.8125 -8.140625 C 21.351562 -8.253906 21.878906 -8.234375 22.390625 -8.078125 C 22.898438 -7.929688 23.363281 -7.640625 23.78125 -7.203125 C 23.851562 -7.128906 23.921875 -7.054688 23.984375 -6.984375 C 24.523438 -6.285156 24.710938 -5.585938 24.546875 -4.890625 C 24.390625 -4.191406 23.914062 -3.523438 23.125 -2.890625 C 21.613281 -1.617188 20.40625 -0.796875 19.5 -0.421875 C 18.59375 -0.0234375 17.582031 0.21875 16.46875 0.3125 C 15.394531 0.40625 14.332031 0.40625 13.28125 0.3125 C 11.832031 0.1875 10.445312 -0.140625 9.125 -0.671875 C 8.09375 -1.066406 7.101562 -1.601562 6.15625 -2.28125 C 5.65625 -2.613281 5.191406 -2.988281 4.765625 -3.40625 C 4.347656 -3.820312 3.957031 -4.273438 3.59375 -4.765625 C 2.25 -6.546875 1.347656 -8.53125 0.890625 -10.71875 L 0.875 -10.75 L 0.875 -10.765625 C 0.4375 -14.128906 1.273438 -16.988281 3.390625 -19.34375 L 3.40625 -19.359375 L 3.4375 -19.359375 C 4.050781 -19.929688 4.695312 -20.429688 5.375 -20.859375 C 6.0625 -21.296875 6.785156 -21.660156 7.546875 -21.953125 C 9.035156 -22.503906 10.804688 -22.914062 12.859375 -23.1875 C 14.992188 -23.46875 17.140625 -23.046875 19.296875 -21.921875 C 20.410156 -21.359375 21.3125 -20.632812 22 -19.75 C 22.695312 -18.863281 23.175781 -17.84375 23.4375 -16.6875 C 23.957031 -14.40625 24.035156 -12.800781 23.671875 -11.875 C 23.484375 -11.414062 23.222656 -11.023438 22.890625 -10.703125 C 22.554688 -10.378906 22.15625 -10.148438 21.6875 -10.015625 C 20.882812 -9.796875 16.820312 -9.332031 9.5 -8.625 Z M 14.0625 -16.5625 C 12.382812 -16.675781 11.207031 -16.414062 10.53125 -15.78125 C 9.925781 -15.238281 9.5 -14.769531 9.25 -14.375 C 10.257812 -14.382812 12.769531 -14.65625 16.78125 -15.1875 C 16.601562 -15.457031 16.394531 -15.679688 16.15625 -15.859375 C 15.914062 -16.046875 15.617188 -16.195312 15.265625 -16.3125 C 14.921875 -16.4375 14.519531 -16.519531 14.0625 -16.5625 Z M 14.0625 -16.5625 "/></g></g></g><g fill="#3b82f6" fill-opacity="1"><g transform="translate(192.462078, 44.52836)"><g><path d="M 2.96875 -31.75 C 3.332031 -31.90625 3.722656 -32.035156 4.140625 -32.140625 C 4.210938 -32.160156 4.285156 -32.179688 4.359375 -32.203125 C 4.429688 -32.222656 4.5 -32.242188 4.5625 -32.265625 C 4.625 -32.285156 4.691406 -32.304688 4.765625 -32.328125 C 4.835938 -32.347656 4.910156 -32.367188 4.984375 -32.390625 C 5.054688 -32.410156 5.128906 -32.4375 5.203125 -32.46875 C 7.628906 -33.269531 10.546875 -33.910156 13.953125 -34.390625 C 17.390625 -34.878906 20.476562 -34.929688 23.21875 -34.546875 C 23.925781 -34.429688 24.660156 -34.257812 25.421875 -34.03125 C 26.265625 -33.78125 26.941406 -33.347656 27.453125 -32.734375 C 28.015625 -32.035156 28.441406 -30.644531 28.734375 -28.5625 C 28.742188 -28.5 28.753906 -28.4375 28.765625 -28.375 C 28.773438 -28.320312 28.78125 -28.265625 28.78125 -28.203125 C 28.789062 -28.148438 28.796875 -28.09375 28.796875 -28.03125 C 28.867188 -27.09375 28.722656 -26.332031 28.359375 -25.75 C 27.992188 -25.164062 27.414062 -24.847656 26.625 -24.796875 C 26.40625 -24.773438 26.1875 -24.769531 25.96875 -24.78125 C 25.75 -24.800781 25.53125 -24.828125 25.3125 -24.859375 C 25.125 -24.898438 24.9375 -24.9375 24.75 -24.96875 C 24.570312 -25 24.394531 -25.023438 24.21875 -25.046875 C 21.757812 -25.441406 19.460938 -25.601562 17.328125 -25.53125 C 15.347656 -25.445312 13.300781 -25.226562 11.1875 -24.875 C 11.164062 -23.414062 11.203125 -22.015625 11.296875 -20.671875 C 12.179688 -20.773438 13.035156 -20.867188 13.859375 -20.953125 C 14.679688 -21.046875 15.503906 -21.132812 16.328125 -21.21875 C 18.117188 -21.394531 19.363281 -21.476562 20.0625 -21.46875 C 20.894531 -21.445312 21.53125 -21.148438 21.96875 -20.578125 C 22.40625 -20.015625 22.617188 -19.257812 22.609375 -18.3125 C 22.609375 -16.488281 22.375 -15.265625 21.90625 -14.640625 C 21.695312 -14.347656 21.394531 -14.09375 21 -13.875 C 20.613281 -13.65625 20.164062 -13.46875 19.65625 -13.3125 C 19.15625 -13.15625 18.554688 -13.003906 17.859375 -12.859375 C 16.953125 -12.703125 16.035156 -12.554688 15.109375 -12.421875 C 14.191406 -12.296875 13.289062 -12.1875 12.40625 -12.09375 C 12.625 -11.0625 12.878906 -10.03125 13.171875 -9 C 13.234375 -9 13.285156 -9 13.328125 -9 C 13.367188 -9.007812 13.410156 -9.015625 13.453125 -9.015625 C 13.492188 -9.015625 13.535156 -9.015625 13.578125 -9.015625 C 13.628906 -9.023438 13.675781 -9.03125 13.71875 -9.03125 C 13.757812 -9.03125 13.800781 -9.03125 13.84375 -9.03125 C 14.269531 -9.082031 14.753906 -9.128906 15.296875 -9.171875 C 16.328125 -9.242188 17.347656 -9.34375 18.359375 -9.46875 C 19.367188 -9.59375 20.359375 -9.738281 21.328125 -9.90625 C 23.296875 -10.25 25.117188 -10.679688 26.796875 -11.203125 L 26.828125 -11.203125 C 26.867188 -11.210938 26.914062 -11.222656 26.96875 -11.234375 C 27.019531 -11.253906 27.070312 -11.273438 27.125 -11.296875 C 27.1875 -11.316406 27.238281 -11.335938 27.28125 -11.359375 C 27.488281 -11.441406 27.691406 -11.515625 27.890625 -11.578125 C 28.128906 -11.628906 28.347656 -11.675781 28.546875 -11.71875 C 28.742188 -11.769531 28.9375 -11.800781 29.125 -11.8125 C 29.5625 -11.84375 29.953125 -11.765625 30.296875 -11.578125 C 30.648438 -11.390625 30.929688 -11.101562 31.140625 -10.71875 C 31.210938 -10.59375 31.273438 -10.457031 31.328125 -10.3125 C 31.390625 -10.164062 31.441406 -10.019531 31.484375 -9.875 C 31.523438 -9.726562 31.5625 -9.578125 31.59375 -9.421875 C 31.632812 -9.265625 31.671875 -9.101562 31.703125 -8.9375 C 31.734375 -8.78125 31.753906 -8.617188 31.765625 -8.453125 C 31.835938 -7.515625 31.820312 -6.679688 31.71875 -5.953125 C 31.625 -5.234375 31.429688 -4.617188 31.140625 -4.109375 C 31.023438 -3.890625 30.875 -3.6875 30.6875 -3.5 C 30.507812 -3.3125 30.3125 -3.132812 30.09375 -2.96875 C 29.875 -2.8125 29.625 -2.660156 29.34375 -2.515625 C 29.0625 -2.367188 28.742188 -2.222656 28.390625 -2.078125 C 28.035156 -1.941406 27.628906 -1.8125 27.171875 -1.6875 C 26.503906 -1.476562 25.742188 -1.289062 24.890625 -1.125 C 24.046875 -0.957031 23.113281 -0.804688 22.09375 -0.671875 C 21.09375 -0.546875 20.066406 -0.4375 19.015625 -0.34375 C 17.960938 -0.257812 16.894531 -0.1875 15.8125 -0.125 C 14.53125 -0.0390625 12.847656 0.0546875 10.765625 0.171875 C 9.679688 0.234375 8.734375 0.222656 7.921875 0.140625 C 7.109375 0.0546875 6.414062 -0.0976562 5.84375 -0.328125 C 4.945312 -0.679688 4.253906 -1.257812 3.765625 -2.0625 C 3.648438 -2.25 3.539062 -2.429688 3.4375 -2.609375 C 3.332031 -2.796875 3.234375 -2.976562 3.140625 -3.15625 C 3.046875 -3.34375 2.957031 -3.523438 2.875 -3.703125 C 2.789062 -3.890625 2.722656 -4.070312 2.671875 -4.25 C 2.128906 -5.570312 1.660156 -7.273438 1.265625 -9.359375 C 0.867188 -11.453125 0.566406 -13.601562 0.359375 -15.8125 C 0.160156 -18.019531 0.0625 -20.160156 0.0625 -22.234375 C 0.0625 -24.316406 0.191406 -26.019531 0.453125 -27.34375 C 0.703125 -28.570312 1.039062 -29.5625 1.46875 -30.3125 C 1.832031 -30.96875 2.332031 -31.445312 2.96875 -31.75 Z M 2.96875 -31.75 "/></g></g></g><g fill="#3b82f6" fill-opacity="1"><g transform="translate(225.453343, 44.52836)"><g><path d="M 9.4375 -8.953125 C 9.050781 -8.304688 9.113281 -7.597656 9.625 -6.828125 C 10.101562 -6.097656 10.941406 -5.914062 12.140625 -6.28125 C 12.421875 -6.363281 12.675781 -6.457031 12.90625 -6.5625 C 13.144531 -6.675781 13.347656 -6.796875 13.515625 -6.921875 C 13.679688 -7.046875 13.828125 -7.179688 13.953125 -7.328125 C 14.160156 -7.566406 14.328125 -7.8125 14.453125 -8.0625 C 14.585938 -8.320312 14.675781 -8.570312 14.71875 -8.8125 C 14.75 -8.945312 14.757812 -9.066406 14.75 -9.171875 C 14.75 -9.285156 14.734375 -9.394531 14.703125 -9.5 C 14.671875 -9.601562 14.628906 -9.691406 14.578125 -9.765625 C 14.523438 -9.847656 14.457031 -9.929688 14.375 -10.015625 C 14 -10.410156 13.523438 -10.65625 12.953125 -10.75 C 12.742188 -10.769531 12.535156 -10.773438 12.328125 -10.765625 C 12.128906 -10.765625 11.921875 -10.738281 11.703125 -10.6875 C 11.484375 -10.632812 11.257812 -10.554688 11.03125 -10.453125 C 10.382812 -10.191406 9.851562 -9.691406 9.4375 -8.953125 Z M 13.265625 -17.03125 C 11.921875 -17.320312 10.59375 -17.347656 9.28125 -17.109375 C 8.300781 -16.929688 7.484375 -16.597656 6.828125 -16.109375 C 5.953125 -15.429688 4.953125 -15.203125 3.828125 -15.421875 C 2.671875 -15.660156 1.847656 -16.3125 1.359375 -17.375 C 0.847656 -18.5 0.976562 -19.46875 1.75 -20.28125 C 2.375 -20.957031 2.941406 -21.46875 3.453125 -21.8125 C 3.816406 -22.070312 4.191406 -22.300781 4.578125 -22.5 C 5.066406 -22.757812 5.5625 -22.972656 6.0625 -23.140625 C 6.570312 -23.316406 7.097656 -23.453125 7.640625 -23.546875 C 8.660156 -23.703125 9.679688 -23.796875 10.703125 -23.828125 C 11.046875 -23.835938 11.390625 -23.835938 11.734375 -23.828125 C 12.078125 -23.816406 12.421875 -23.789062 12.765625 -23.75 C 13.109375 -23.71875 13.445312 -23.675781 13.78125 -23.625 C 14.113281 -23.570312 14.441406 -23.507812 14.765625 -23.4375 C 15.816406 -23.226562 16.832031 -22.90625 17.8125 -22.46875 C 18.875 -22.019531 19.875 -21.109375 20.8125 -19.734375 C 21.289062 -19.046875 21.628906 -18.289062 21.828125 -17.46875 C 22.035156 -16.644531 22.113281 -15.765625 22.0625 -14.828125 C 21.9375 -13.078125 21.867188 -11.007812 21.859375 -8.625 C 21.847656 -6.070312 22.144531 -4.175781 22.75 -2.9375 L 22.78125 -2.90625 L 22.796875 -2.859375 C 22.867188 -2.660156 22.941406 -2.441406 23.015625 -2.203125 C 23.117188 -1.910156 23.164062 -1.613281 23.15625 -1.3125 C 23.132812 -0.757812 22.90625 -0.269531 22.46875 0.15625 C 22.0625 0.550781 21.457031 0.828125 20.65625 0.984375 C 19.863281 1.128906 19.132812 1.09375 18.46875 0.875 C 17.851562 0.664062 17.410156 0.488281 17.140625 0.34375 C 16.578125 0.0390625 16.160156 -0.378906 15.890625 -0.921875 C 15.859375 -0.960938 15.832031 -1.007812 15.8125 -1.0625 C 15.789062 -1.113281 15.765625 -1.164062 15.734375 -1.21875 C 15.160156 -0.832031 14.65625 -0.539062 14.21875 -0.34375 C 13.800781 -0.175781 13.375 -0.0234375 12.9375 0.109375 C 12.5 0.242188 12.050781 0.347656 11.59375 0.421875 C 11.144531 0.492188 10.679688 0.535156 10.203125 0.546875 C 8.742188 0.578125 7.359375 0.375 6.046875 -0.0625 C 5.796875 -0.15625 5.546875 -0.25 5.296875 -0.34375 C 5.054688 -0.4375 4.820312 -0.539062 4.59375 -0.65625 C 4.363281 -0.769531 4.140625 -0.890625 3.921875 -1.015625 C 3.703125 -1.140625 3.484375 -1.273438 3.265625 -1.421875 C 2.390625 -2.003906 1.71875 -2.734375 1.25 -3.609375 C 0.8125 -4.472656 0.59375 -5.457031 0.59375 -6.5625 C 0.59375 -8.132812 1.015625 -9.550781 1.859375 -10.8125 C 2.285156 -11.394531 2.671875 -11.925781 3.015625 -12.40625 C 3.410156 -12.925781 4.222656 -13.632812 5.453125 -14.53125 C 6.085938 -15 6.785156 -15.367188 7.546875 -15.640625 C 8.304688 -15.921875 9.128906 -16.113281 10.015625 -16.21875 C 11.523438 -16.375 13.117188 -16.300781 14.796875 -16 C 14.597656 -16.300781 14.085938 -16.644531 13.265625 -17.03125 Z M 13.265625 -17.03125 "/></g></g></g><g fill="#3b82f6" fill-opacity="1"><g transform="translate(248.840387, 44.52836)"><g><path d="M 1.078125 -3.484375 L 0.828125 -3.765625 C 0.535156 -4.109375 0.367188 -4.5 0.328125 -4.9375 L 0.328125 -5.125 C 0.335938 -5.53125 0.359375 -6.019531 0.390625 -6.59375 C 0.421875 -7.195312 0.53125 -7.710938 0.71875 -8.140625 C 0.882812 -8.535156 1.113281 -8.785156 1.40625 -8.890625 C 1.5625 -8.929688 1.703125 -8.941406 1.828125 -8.921875 C 1.953125 -8.910156 2.070312 -8.875 2.1875 -8.8125 C 2.363281 -8.726562 2.523438 -8.640625 2.671875 -8.546875 C 2.828125 -8.453125 2.972656 -8.347656 3.109375 -8.234375 L 3.125 -8.234375 L 3.234375 -8.140625 C 3.378906 -8.003906 3.519531 -7.878906 3.65625 -7.765625 C 3.800781 -7.660156 3.945312 -7.5625 4.09375 -7.46875 C 4.238281 -7.375 4.382812 -7.28125 4.53125 -7.1875 C 4.675781 -7.101562 4.835938 -7.019531 5.015625 -6.9375 C 6.453125 -6.269531 7.789062 -6.054688 9.03125 -6.296875 C 9.101562 -6.328125 9.1875 -6.375 9.28125 -6.4375 C 9.40625 -6.507812 9.472656 -6.566406 9.484375 -6.609375 C 9.492188 -6.648438 9.476562 -6.707031 9.4375 -6.78125 C 9.414062 -6.800781 9.394531 -6.820312 9.375 -6.84375 C 9.363281 -6.875 9.351562 -6.894531 9.34375 -6.90625 C 9.34375 -6.925781 9.34375 -6.941406 9.34375 -6.953125 C 9.332031 -6.984375 9.300781 -7.023438 9.25 -7.078125 C 9.195312 -7.128906 9.125 -7.1875 9.03125 -7.25 C 8.9375 -7.320312 8.832031 -7.394531 8.71875 -7.46875 C 8.613281 -7.539062 8.484375 -7.628906 8.328125 -7.734375 C 8.171875 -7.847656 8.015625 -7.953125 7.859375 -8.046875 C 7.710938 -8.148438 7.535156 -8.269531 7.328125 -8.40625 C 7.128906 -8.550781 6.941406 -8.679688 6.765625 -8.796875 C 4.296875 -10.515625 2.863281 -11.675781 2.46875 -12.28125 C 1.519531 -13.707031 1.242188 -15.140625 1.640625 -16.578125 C 1.828125 -17.265625 2.125 -17.914062 2.53125 -18.53125 C 2.945312 -19.144531 3.457031 -19.703125 4.0625 -20.203125 C 6.238281 -21.992188 9.65625 -22.65625 14.3125 -22.1875 L 14.375 -22.1875 L 14.4375 -22.171875 C 14.613281 -22.109375 14.789062 -22.046875 14.96875 -21.984375 C 15.144531 -21.929688 15.3125 -21.875 15.46875 -21.8125 C 15.625 -21.757812 15.773438 -21.703125 15.921875 -21.640625 L 15.953125 -21.640625 L 15.96875 -21.625 C 16.039062 -21.59375 16.132812 -21.550781 16.25 -21.5 C 16.375 -21.445312 16.507812 -21.382812 16.65625 -21.3125 L 16.6875 -21.296875 L 16.71875 -21.265625 C 17 -21.109375 17.332031 -20.941406 17.71875 -20.765625 L 17.828125 -20.703125 L 17.90625 -20.609375 L 18.46875 -19.9375 C 18.539062 -19.863281 18.597656 -19.789062 18.640625 -19.71875 C 18.804688 -19.5 18.945312 -19.253906 19.0625 -18.984375 C 19.175781 -18.722656 19.273438 -18.425781 19.359375 -18.09375 C 19.566406 -17.28125 19.382812 -16.609375 18.8125 -16.078125 L 18.671875 -15.96875 C 18.160156 -15.632812 17.515625 -15.554688 16.734375 -15.734375 L 16.71875 -15.734375 C 16.039062 -15.921875 15.375 -16.070312 14.71875 -16.1875 L 14.71875 -16.21875 L 14.703125 -16.21875 L 13.625 -16.46875 C 13.113281 -16.53125 12.566406 -16.5625 11.984375 -16.5625 C 11.816406 -16.488281 11.703125 -16.421875 11.640625 -16.359375 C 11.640625 -16.335938 11.65625 -16.300781 11.6875 -16.25 C 11.726562 -16.195312 11.785156 -16.125 11.859375 -16.03125 C 11.929688 -15.945312 12.019531 -15.851562 12.125 -15.75 C 12.238281 -15.644531 12.382812 -15.523438 12.5625 -15.390625 C 12.738281 -15.253906 12.9375 -15.117188 13.15625 -14.984375 L 13.171875 -14.96875 L 13.21875 -14.9375 C 13.375 -14.789062 14.09375 -14.363281 15.375 -13.65625 L 15.421875 -13.609375 L 17.03125 -12.515625 L 17.140625 -12.421875 C 17.835938 -12.003906 18.421875 -11.546875 18.890625 -11.046875 C 19.367188 -10.554688 19.742188 -10.007812 20.015625 -9.40625 C 20.585938 -8.195312 20.597656 -6.847656 20.046875 -5.359375 C 19.503906 -3.910156 18.519531 -2.691406 17.09375 -1.703125 C 16.164062 -1.066406 15.054688 -0.609375 13.765625 -0.328125 C 13.179688 -0.191406 12.570312 -0.09375 11.9375 -0.03125 C 11.3125 0.0195312 10.6875 0.03125 10.0625 0 L 10.015625 0.0625 L 9.765625 0.046875 C 9.640625 0.0234375 9.453125 0.0078125 9.203125 0 C 8.960938 -0.0078125 8.796875 -0.015625 8.703125 -0.015625 C 8.609375 -0.015625 8.472656 -0.0195312 8.296875 -0.03125 C 8.117188 -0.0507812 7.988281 -0.0664062 7.90625 -0.078125 C 7.832031 -0.0976562 7.738281 -0.125 7.625 -0.15625 C 7.519531 -0.1875 7.429688 -0.210938 7.359375 -0.234375 C 7.285156 -0.265625 7.21875 -0.300781 7.15625 -0.34375 C 6.601562 -0.46875 6.132812 -0.59375 5.75 -0.71875 L 5.734375 -0.75 L 5.6875 -0.75 L 2.71875 -2.125 L 2.6875 -2.140625 L 2.671875 -2.171875 C 2.066406 -2.546875 1.539062 -2.972656 1.09375 -3.453125 C 1.09375 -3.472656 1.085938 -3.484375 1.078125 -3.484375 Z M 1.078125 -3.484375 "/></g></g></g><g fill="#3b82f6" fill-opacity="1"><g transform="translate(269.645886, 44.52836)"><g><path d="M 9.5 -8.625 C 9.457031 -8.59375 9.429688 -8.570312 9.421875 -8.5625 C 9.410156 -8.5625 9.398438 -8.550781 9.390625 -8.53125 C 10.085938 -7.394531 10.90625 -6.628906 11.84375 -6.234375 C 12.84375 -5.816406 14.03125 -5.671875 15.40625 -5.796875 C 16.425781 -5.890625 17.671875 -6.421875 19.140625 -7.390625 C 19.710938 -7.773438 20.269531 -8.023438 20.8125 -8.140625 C 21.351562 -8.253906 21.878906 -8.234375 22.390625 -8.078125 C 22.898438 -7.929688 23.363281 -7.640625 23.78125 -7.203125 C 23.851562 -7.128906 23.921875 -7.054688 23.984375 -6.984375 C 24.523438 -6.285156 24.710938 -5.585938 24.546875 -4.890625 C 24.390625 -4.191406 23.914062 -3.523438 23.125 -2.890625 C 21.613281 -1.617188 20.40625 -0.796875 19.5 -0.421875 C 18.59375 -0.0234375 17.582031 0.21875 16.46875 0.3125 C 15.394531 0.40625 14.332031 0.40625 13.28125 0.3125 C 11.832031 0.1875 10.445312 -0.140625 9.125 -0.671875 C 8.09375 -1.066406 7.101562 -1.601562 6.15625 -2.28125 C 5.65625 -2.613281 5.191406 -2.988281 4.765625 -3.40625 C 4.347656 -3.820312 3.957031 -4.273438 3.59375 -4.765625 C 2.25 -6.546875 1.347656 -8.53125 0.890625 -10.71875 L 0.875 -10.75 L 0.875 -10.765625 C 0.4375 -14.128906 1.273438 -16.988281 3.390625 -19.34375 L 3.40625 -19.359375 L 3.4375 -19.359375 C 4.050781 -19.929688 4.695312 -20.429688 5.375 -20.859375 C 6.0625 -21.296875 6.785156 -21.660156 7.546875 -21.953125 C 9.035156 -22.503906 10.804688 -22.914062 12.859375 -23.1875 C 14.992188 -23.46875 17.140625 -23.046875 19.296875 -21.921875 C 20.410156 -21.359375 21.3125 -20.632812 22 -19.75 C 22.695312 -18.863281 23.175781 -17.84375 23.4375 -16.6875 C 23.957031 -14.40625 24.035156 -12.800781 23.671875 -11.875 C 23.484375 -11.414062 23.222656 -11.023438 22.890625 -10.703125 C 22.554688 -10.378906 22.15625 -10.148438 21.6875 -10.015625 C 20.882812 -9.796875 16.820312 -9.332031 9.5 -8.625 Z M 14.0625 -16.5625 C 12.382812 -16.675781 11.207031 -16.414062 10.53125 -15.78125 C 9.925781 -15.238281 9.5 -14.769531 9.25 -14.375 C 10.257812 -14.382812 12.769531 -14.65625 16.78125 -15.1875 C 16.601562 -15.457031 16.394531 -15.679688 16.15625 -15.859375 C 15.914062 -16.046875 15.617188 -16.195312 15.265625 -16.3125 C 14.921875 -16.4375 14.519531 -16.519531 14.0625 -16.5625 Z M 14.0625 -16.5625 "/></g></g></g><g clip-path="url(#c078b87dea)"><path fill="#3b82f6" d="M 52.910156 26.5625 C 50.722656 24.660156 45.292969 24.085938 40.363281 23.972656 C 45.050781 23.28125 49.976562 22.113281 51.84375 20.074219 C 54.371094 17.316406 54.183594 13.027344 51.425781 10.496094 C 49.566406 8.792969 47.011719 8.324219 44.769531 9.039062 C 45.292969 6.746094 44.601562 4.242188 42.742188 2.539062 C 39.984375 0.0078125 35.695312 0.195312 33.164062 2.953125 C 31.179688 5.121094 30.484375 10.589844 30.253906 15.539062 C 30.023438 10.589844 29.324219 5.121094 27.339844 2.953125 C 24.8125 0.195312 20.523438 0.0078125 17.761719 2.539062 C 15.902344 4.242188 15.214844 6.746094 15.734375 9.039062 C 13.492188 8.324219 10.941406 8.792969 9.082031 10.496094 C 6.320312 13.027344 6.132812 17.316406 8.664062 20.074219 C 10.542969 22.125 15.523438 23.300781 20.242188 23.984375 C 15.464844 24.128906 10.355469 24.730469 8.246094 26.558594 C 5.417969 29.015625 5.121094 33.296875 7.574219 36.125 C 9.230469 38.027344 11.710938 38.785156 14.023438 38.324219 C 13.242188 40.546875 13.644531 43.109375 15.300781 45.015625 C 17.753906 47.839844 22.035156 48.144531 24.863281 45.6875 C 27.027344 43.804688 28.328125 38.65625 29.125 33.859375 C 29.027344 36.15625 29.070312 38.476562 29.347656 40.800781 C 29.644531 43.25 30.203125 45.707031 31.164062 48.058594 C 32.117188 50.410156 33.488281 52.640625 35.242188 54.539062 L 35.253906 54.554688 C 35.269531 54.570312 35.285156 54.585938 35.300781 54.605469 C 36 55.296875 38.515625 52.769531 37.816406 52.074219 C 36.296875 50.5625 35.066406 48.757812 34.152344 46.769531 C 33.238281 44.777344 32.636719 42.613281 32.269531 40.386719 C 31.898438 38.15625 31.765625 35.863281 31.78125 33.558594 C 31.785156 33.171875 31.792969 32.785156 31.804688 32.394531 C 32.570312 37.5625 33.910156 43.613281 36.296875 45.6875 C 39.121094 48.144531 43.402344 47.839844 45.859375 45.015625 C 47.515625 43.109375 47.914062 40.546875 47.136719 38.324219 C 49.445312 38.785156 51.929688 38.027344 53.585938 36.125 C 56.039062 33.296875 55.738281 29.015625 52.910156 26.5625 Z M 52.910156 26.5625 " fill-opacity="1" fill-rule="nonzero"/></g></svg>