<svg xmlns="http://www.w3.org/2000/svg" xmlns:xlink="http://www.w3.org/1999/xlink" width="500" zoomAndPan="magnify" viewBox="0 0 375 374.999991" height="500" preserveAspectRatio="xMidYMid meet" version="1.0"><path fill="#3b82f6" d="M 338.898438 180.144531 C 324.046875 167.242188 287.234375 163.359375 253.78125 162.582031 C 285.578125 157.914062 318.976562 149.96875 331.640625 136.152344 C 348.800781 117.433594 347.535156 88.351562 328.816406 71.191406 C 316.203125 59.628906 298.886719 56.449219 283.683594 61.320312 C 287.214844 45.75 282.542969 28.773438 269.929688 17.210938 C 251.210938 0.0546875 222.121094 1.3125 204.972656 20.035156 C 191.511719 34.726562 186.785156 71.816406 185.21875 105.402344 C 183.652344 71.816406 178.921875 34.726562 165.464844 20.035156 C 148.308594 1.3125 119.222656 0.0546875 100.503906 17.210938 C 87.890625 28.773438 83.214844 45.75 86.75 61.320312 C 71.542969 56.449219 54.226562 59.628906 41.613281 71.191406 C 22.894531 88.351562 21.628906 117.433594 38.789062 136.152344 C 51.539062 150.0625 85.320312 158.023438 117.316406 162.675781 C 84.90625 163.660156 50.253906 167.722656 35.957031 180.144531 C 16.789062 196.796875 14.75 225.835938 31.402344 245.003906 C 42.625 257.921875 59.46875 263.046875 75.128906 259.929688 C 69.851562 275 72.574219 292.394531 83.792969 305.3125 C 100.445312 324.480469 129.492188 326.527344 148.65625 309.867188 C 163.335938 297.105469 172.167969 262.183594 177.570312 229.648438 C 176.894531 245.214844 177.183594 260.957031 179.082031 276.722656 C 181.085938 293.328125 184.890625 310 191.390625 325.957031 C 197.855469 341.894531 207.15625 357.019531 219.046875 369.917969 L 219.128906 370.003906 C 219.234375 370.117188 219.34375 370.234375 219.457031 370.347656 C 224.195312 375.058594 241.253906 357.90625 236.515625 353.195312 C 226.210938 342.941406 217.863281 330.707031 211.675781 317.207031 C 205.46875 303.707031 201.371094 289.019531 198.882812 273.914062 C 196.386719 258.792969 195.464844 243.246094 195.578125 227.617188 C 195.59375 224.988281 195.652344 222.355469 195.726562 219.714844 C 200.933594 254.769531 210.011719 295.792969 226.203125 309.867188 C 245.367188 326.527344 274.414062 324.480469 291.066406 305.3125 C 302.285156 292.394531 305.007812 275 299.730469 259.929688 C 315.390625 263.046875 332.238281 257.921875 343.457031 245.003906 C 360.109375 225.835938 358.066406 196.796875 338.898438 180.144531 Z M 338.898438 180.144531 " fill-opacity="1" fill-rule="nonzero"/></svg>